<svg xmlns="http://www.w3.org/2000/svg" width="200" viewBox="0 0 236.41 40.98"><defs><style>.cls-1{fill:#273572;}.cls-2{fill:#4d4c4e;}.cls-3{fill:#3576bc;}.cls-4{fill:#70a9db;}</style></defs><g id="Hub"><path class="cls-1" d="M165.6,7.15h2.26V19H184.5V7.15h2.26v27.3H184.5V21H167.86V34.45H165.6Z"/><path class="cls-1" d="M200,34.82a9.94,9.94,0,0,1-3.73-.63,6.72,6.72,0,0,1-2.56-1.79,7.34,7.34,0,0,1-1.5-2.79,12.52,12.52,0,0,1-.49-3.64V13.62h2.17v12.1q0,3.69,1.5,5.47A5.77,5.77,0,0,0,200.12,33a5.46,5.46,0,0,0,4.57-1.85A8.14,8.14,0,0,0,206.15,26V13.62h2V25.84a10.1,10.1,0,0,1-2,6.56C204.92,34,202.85,34.82,200,34.82Z"/><path class="cls-1" d="M213.53,13.62h5.57a9.06,9.06,0,0,1,5,1.23A4.38,4.38,0,0,1,226,18.79a4.41,4.41,0,0,1-1,3,5.37,5.37,0,0,1-2.71,1.62v0a6.08,6.08,0,0,1,3.32,1.66,4.69,4.69,0,0,1,1.36,3.51,4.91,4.91,0,0,1-2.14,4.45,10.44,10.44,0,0,1-5.74,1.37h-5.53Zm5.33,9.07a6.13,6.13,0,0,0,3.77-.93,3.38,3.38,0,0,0,1.19-2.85q0-3.53-4.88-3.52h-3.28v7.3Zm.16,10a7.91,7.91,0,0,0,4.29-.94,3.39,3.39,0,0,0,1.41-3,3.92,3.92,0,0,0-1.31-3.18,6.61,6.61,0,0,0-4.22-1.08h-3.53v8.24Z"/></g><g id="Layer_1" data-name="Layer 1"><path class="cls-2" d="M76.77,34.43H88.63c8.39,0,12.48-5.93,12.48-13.9,0-9.13-5.36-13.6-12.48-13.6H76.77v27.5Zm6-22.42h4.32c6,0,7.93,3.55,7.93,9.09,0,6.09-3.35,8.25-6.86,8.25H82.81V12Zm22.5,22.42H111V15.13H111l6.74,19.3h4.66l6.74-19.49h.08V34.43h5.66V6.93h-8.51l-6.08,18.91h-.08L113.82,6.93h-8.51v27.5Zm34.93,0h6V24.57h6.36c6.85,0,9.51-4.35,9.51-8.82s-2.66-8.82-9.51-8.82h-12.4v27.5Zm6-22.8H151c2.81,0,5.32.62,5.32,4.12s-2.51,4.12-5.32,4.12h-4.7V11.63Z"/><path class="cls-1" d="M2.22,23l1.06-.38L38.31,37,63.55,25.55l.87.3a1.66,1.66,0,0,1,1.24,1.3,1.48,1.48,0,0,1-1,1.39l-25,11.55a3.19,3.19,0,0,1-2.45,0L2.1,25.73A1.54,1.54,0,0,1,1,24.35,1.62,1.62,0,0,1,2.22,23Z"/><path class="cls-3" d="M2.22,16.8l1.27-.45c2.88,1.26,34.84,13.91,34.84,13.91l24.9-11,1.2.42a1.66,1.66,0,0,1,1.24,1.3,1.49,1.49,0,0,1-1,1.39l-25,11.05a3,3,0,0,1-1.23.25,3.06,3.06,0,0,1-1.13-.21L2.14,19.52A1.56,1.56,0,0,1,1,18.14,1.62,1.62,0,0,1,2.22,16.8Z"/><path class="cls-4" d="M64.71,15.78c-.09,0-2.19,1.06-8.84,4a11.45,11.45,0,0,1-4.52,1H24.18a16.69,16.69,0,0,1-5.79-1C9.5,16.43,2.3,13.09,2,13a1.48,1.48,0,0,1-1-1.38,1.65,1.65,0,0,1,1.22-1.28L27.74,1.18a3.1,3.1,0,0,1,2.06,0l34.62,12a1.68,1.68,0,0,1,1.24,1.27,1.44,1.44,0,0,1-1,1.39ZM28.8,4.3l-21,7.51c2.94,1.28,7.61,3.25,12.79,5.16a10.35,10.35,0,0,0,3.64.63c6.26,0,12.45-4.73,12.51-4.77a2.84,2.84,0,0,1,1.7-.53h0a2.78,2.78,0,0,1,1.7.54c1.68,1.31,6.95,4.73,11.11,4.73a5.44,5.44,0,0,0,2.23-.43c2.38-1,4.17-1.84,5.49-2.44L28.8,4.3Z"/></g></svg>